<mxfile host="Electron" agent="Mozilla/5.0 (Windows NT 10.0; Win64; x64) AppleWebKit/537.36 (KHTML, like Gecko) draw.io/24.7.8 Chrome/128.0.6613.36 Electron/32.0.1 Safari/537.36" version="24.7.8">
  <diagram name="Страница — 1" id="y18GQ6VlC8n4IWGyLo3g">
    <mxGraphModel dx="2302" dy="2516" grid="0" gridSize="10" guides="1" tooltips="1" connect="1" arrows="1" fold="1" page="1" pageScale="1" pageWidth="827" pageHeight="1169" math="0" shadow="0">
      <root>
        <mxCell id="0" />
        <mxCell id="1" parent="0" />
        <mxCell id="lgPk3I0XaDIh1GQII4zT-98" value="&lt;font face=&quot;Times New Roman&quot; style=&quot;font-size: 14px;&quot;&gt;Docker-compose&lt;/font&gt;" style="verticalAlign=top;align=left;spacingTop=8;spacingLeft=2;spacingRight=12;shape=cube;size=10;direction=south;fontStyle=4;html=1;whiteSpace=wrap;" vertex="1" parent="1">
          <mxGeometry x="29" y="-8" width="1607" height="801.5" as="geometry" />
        </mxCell>
        <mxCell id="lgPk3I0XaDIh1GQII4zT-99" value="" style="shape=cylinder3;whiteSpace=wrap;html=1;boundedLbl=1;backgroundOutline=1;size=15;" vertex="1" parent="1">
          <mxGeometry x="899.75" y="17" width="220" height="140" as="geometry" />
        </mxCell>
        <mxCell id="lgPk3I0XaDIh1GQII4zT-100" value="" style="shape=module;align=left;spacingLeft=20;align=center;verticalAlign=top;whiteSpace=wrap;html=1;" vertex="1" parent="1">
          <mxGeometry x="931.88" y="96" width="155.75" height="47.5" as="geometry" />
        </mxCell>
        <mxCell id="lgPk3I0XaDIh1GQII4zT-101" value="&lt;font style=&quot;font-size: 14px;&quot; face=&quot;Times New Roman&quot;&gt;Docker Container&lt;br&gt;Database Server&lt;/font&gt;" style="text;html=1;align=center;verticalAlign=middle;whiteSpace=wrap;rounded=0;" vertex="1" parent="1">
          <mxGeometry x="951" y="57" width="107.5" height="32.5" as="geometry" />
        </mxCell>
        <mxCell id="lgPk3I0XaDIh1GQII4zT-105" value="" style="verticalAlign=top;align=left;spacingTop=8;spacingLeft=2;spacingRight=12;shape=cube;size=10;direction=south;fontStyle=4;html=1;whiteSpace=wrap;" vertex="1" parent="1">
          <mxGeometry x="731" y="554.5" width="225" height="155" as="geometry" />
        </mxCell>
        <mxCell id="lgPk3I0XaDIh1GQII4zT-106" value="&lt;font style=&quot;font-size: 14px;&quot; face=&quot;Times New Roman&quot;&gt;Docker Container&lt;br&gt;AG.CoreService&lt;/font&gt;" style="text;html=1;align=center;verticalAlign=middle;whiteSpace=wrap;rounded=0;" vertex="1" parent="1">
          <mxGeometry x="789.75" y="572" width="114.25" height="32" as="geometry" />
        </mxCell>
        <mxCell id="lgPk3I0XaDIh1GQII4zT-107" value="" style="verticalAlign=top;align=left;spacingTop=8;spacingLeft=2;spacingRight=12;shape=cube;size=10;direction=south;fontStyle=4;html=1;whiteSpace=wrap;" vertex="1" parent="1">
          <mxGeometry x="401" y="554.5" width="225" height="155" as="geometry" />
        </mxCell>
        <mxCell id="lgPk3I0XaDIh1GQII4zT-108" value="&lt;font face=&quot;Times New Roman&quot; style=&quot;font-size: 14px;&quot;&gt;Docker Container&lt;br&gt;AG.AuthService&lt;/font&gt;" style="text;html=1;align=center;verticalAlign=middle;whiteSpace=wrap;rounded=0;" vertex="1" parent="1">
          <mxGeometry x="447" y="573" width="124.25" height="30" as="geometry" />
        </mxCell>
        <mxCell id="lgPk3I0XaDIh1GQII4zT-109" value="" style="verticalAlign=top;align=left;spacingTop=8;spacingLeft=2;spacingRight=12;shape=cube;size=10;direction=south;fontStyle=4;html=1;whiteSpace=wrap;" vertex="1" parent="1">
          <mxGeometry x="1061" y="277" width="225" height="155" as="geometry" />
        </mxCell>
        <mxCell id="lgPk3I0XaDIh1GQII4zT-110" value="&lt;font style=&quot;font-size: 14px;&quot; face=&quot;Times New Roman&quot;&gt;Docker Container&lt;br&gt;AG.UsersService&lt;/font&gt;" style="text;html=1;align=center;verticalAlign=middle;whiteSpace=wrap;rounded=0;" vertex="1" parent="1">
          <mxGeometry x="1119.75" y="294.5" width="107.5" height="30" as="geometry" />
        </mxCell>
        <mxCell id="lgPk3I0XaDIh1GQII4zT-113" value="" style="verticalAlign=top;align=left;spacingTop=8;spacingLeft=2;spacingRight=12;shape=cube;size=10;direction=south;fontStyle=4;html=1;whiteSpace=wrap;" vertex="1" parent="1">
          <mxGeometry x="426" y="277" width="225" height="155" as="geometry" />
        </mxCell>
        <mxCell id="lgPk3I0XaDIh1GQII4zT-114" value="&lt;font face=&quot;Times New Roman&quot; style=&quot;font-size: 14px;&quot;&gt;Docker Container&lt;br&gt;AG.PicturesService&lt;/font&gt;" style="text;html=1;align=center;verticalAlign=middle;whiteSpace=wrap;rounded=0;" vertex="1" parent="1">
          <mxGeometry x="475.38" y="294.87" width="126.25" height="30" as="geometry" />
        </mxCell>
        <mxCell id="lgPk3I0XaDIh1GQII4zT-115" value="" style="verticalAlign=top;align=left;spacingTop=8;spacingLeft=2;spacingRight=12;shape=cube;size=10;direction=south;fontStyle=4;html=1;whiteSpace=wrap;" vertex="1" parent="1">
          <mxGeometry x="743.12" y="273" width="225" height="155" as="geometry" />
        </mxCell>
        <mxCell id="lgPk3I0XaDIh1GQII4zT-116" value="&lt;font style=&quot;font-size: 14px;&quot; face=&quot;Times New Roman&quot;&gt;Docker Container&lt;br&gt;AG.AdminService&lt;/font&gt;" style="text;html=1;align=center;verticalAlign=middle;whiteSpace=wrap;rounded=0;" vertex="1" parent="1">
          <mxGeometry x="801.87" y="290.5" width="107.5" height="30" as="geometry" />
        </mxCell>
        <mxCell id="lgPk3I0XaDIh1GQII4zT-119" value="" style="verticalAlign=top;align=left;spacingTop=8;spacingLeft=2;spacingRight=12;shape=cube;size=10;direction=south;fontStyle=4;html=1;whiteSpace=wrap;" vertex="1" parent="1">
          <mxGeometry x="733.5" y="916" width="267.5" height="235" as="geometry" />
        </mxCell>
        <mxCell id="lgPk3I0XaDIh1GQII4zT-120" value="" style="verticalAlign=top;align=left;spacingTop=8;spacingLeft=2;spacingRight=12;shape=cube;size=10;direction=south;fontStyle=4;html=1;whiteSpace=wrap;" vertex="1" parent="1">
          <mxGeometry x="743.12" y="966.5" width="235.5" height="150" as="geometry" />
        </mxCell>
        <mxCell id="lgPk3I0XaDIh1GQII4zT-121" value="&lt;font style=&quot;font-size: 14px;&quot; face=&quot;Times New Roman&quot;&gt;Browser&lt;/font&gt;&lt;div style=&quot;font-size: 14px;&quot;&gt;&lt;font style=&quot;font-size: 14px;&quot; face=&quot;Times New Roman&quot;&gt;&lt;font style=&quot;font-size: 14px;&quot;&gt;Google Chrome&lt;/font&gt;&lt;span style=&quot;font-size: 13px;&quot;&gt;&amp;nbsp;&lt;/span&gt;&lt;span style=&quot;font-size: 14px; background-color: initial;&quot;&gt;128.0.6613.139&lt;/span&gt;&lt;/font&gt;&lt;br&gt;&lt;/div&gt;" style="text;html=1;align=center;verticalAlign=middle;whiteSpace=wrap;rounded=0;" vertex="1" parent="1">
          <mxGeometry x="756.5" y="978" width="203.5" height="46.5" as="geometry" />
        </mxCell>
        <mxCell id="lgPk3I0XaDIh1GQII4zT-122" value="&lt;div style=&quot;&quot;&gt;&lt;br&gt;&lt;/div&gt;" style="shape=module;align=left;spacingLeft=20;align=center;verticalAlign=top;whiteSpace=wrap;html=1;" vertex="1" parent="1">
          <mxGeometry x="779.87" y="1031.5" width="178.75" height="75" as="geometry" />
        </mxCell>
        <mxCell id="lgPk3I0XaDIh1GQII4zT-123" value="&lt;font style=&quot;font-size: 14px;&quot; face=&quot;Times New Roman&quot;&gt;&amp;lt;&amp;lt;device&amp;gt;&amp;gt;&lt;br&gt;AG.Client&lt;/font&gt;" style="text;html=1;align=center;verticalAlign=middle;whiteSpace=wrap;rounded=0;" vertex="1" parent="1">
          <mxGeometry x="816.12" y="934.5" width="97.5" height="30" as="geometry" />
        </mxCell>
        <mxCell id="lgPk3I0XaDIh1GQII4zT-126" value="" style="endArrow=block;html=1;rounded=0;exitX=0.5;exitY=1;exitDx=0;exitDy=0;exitPerimeter=0;entryX=0;entryY=0;entryDx=0;entryDy=107.50000000000001;entryPerimeter=0;edgeStyle=orthogonalEdgeStyle;endFill=1;startArrow=block;startFill=1;" edge="1" parent="1" source="lgPk3I0XaDIh1GQII4zT-99">
          <mxGeometry width="50" height="50" relative="1" as="geometry">
            <mxPoint x="1020" y="167" as="sourcePoint" />
            <mxPoint x="1178.5" y="277" as="targetPoint" />
            <Array as="points">
              <mxPoint x="1010" y="237" />
              <mxPoint x="1179" y="237" />
              <mxPoint x="1179" y="277" />
            </Array>
          </mxGeometry>
        </mxCell>
        <mxCell id="lgPk3I0XaDIh1GQII4zT-127" value="&lt;font style=&quot;font-size: 14px;&quot; face=&quot;Times New Roman&quot;&gt;TCP&lt;/font&gt;" style="edgeLabel;html=1;align=center;verticalAlign=middle;resizable=0;points=[];" vertex="1" connectable="0" parent="lgPk3I0XaDIh1GQII4zT-126">
          <mxGeometry x="0.0757" y="1" relative="1" as="geometry">
            <mxPoint x="-6" y="-9" as="offset" />
          </mxGeometry>
        </mxCell>
        <mxCell id="lgPk3I0XaDIh1GQII4zT-130" value="" style="endArrow=block;html=1;rounded=0;exitX=0.5;exitY=1;exitDx=0;exitDy=0;exitPerimeter=0;entryX=0;entryY=0;entryDx=0;entryDy=107.5;entryPerimeter=0;edgeStyle=orthogonalEdgeStyle;endFill=1;startArrow=block;startFill=1;" edge="1" parent="1" source="lgPk3I0XaDIh1GQII4zT-99" target="lgPk3I0XaDIh1GQII4zT-113">
          <mxGeometry width="50" height="50" relative="1" as="geometry">
            <mxPoint x="1020" y="167" as="sourcePoint" />
            <mxPoint x="859" y="287" as="targetPoint" />
            <Array as="points">
              <mxPoint x="1010" y="180" />
              <mxPoint x="543" y="180" />
            </Array>
          </mxGeometry>
        </mxCell>
        <mxCell id="lgPk3I0XaDIh1GQII4zT-131" value="&lt;font face=&quot;Times New Roman&quot; style=&quot;font-size: 14px;&quot;&gt;TCP&lt;/font&gt;" style="edgeLabel;html=1;align=center;verticalAlign=middle;resizable=0;points=[];" vertex="1" connectable="0" parent="lgPk3I0XaDIh1GQII4zT-130">
          <mxGeometry x="0.0757" y="1" relative="1" as="geometry">
            <mxPoint x="-6" y="-9" as="offset" />
          </mxGeometry>
        </mxCell>
        <mxCell id="lgPk3I0XaDIh1GQII4zT-132" value="" style="endArrow=block;html=1;rounded=0;exitX=0.5;exitY=1;exitDx=0;exitDy=0;exitPerimeter=0;entryX=0;entryY=0;entryDx=0;entryDy=107.5;entryPerimeter=0;edgeStyle=orthogonalEdgeStyle;endFill=1;startArrow=block;startFill=1;" edge="1" parent="1" source="lgPk3I0XaDIh1GQII4zT-99" target="lgPk3I0XaDIh1GQII4zT-115">
          <mxGeometry width="50" height="50" relative="1" as="geometry">
            <mxPoint x="1020" y="167" as="sourcePoint" />
            <mxPoint x="554" y="287" as="targetPoint" />
            <Array as="points">
              <mxPoint x="1010" y="197" />
              <mxPoint x="861" y="197" />
              <mxPoint x="861" y="255" />
              <mxPoint x="861" y="255" />
            </Array>
          </mxGeometry>
        </mxCell>
        <mxCell id="lgPk3I0XaDIh1GQII4zT-133" value="&lt;font style=&quot;font-size: 14px;&quot; face=&quot;Times New Roman&quot;&gt;TCP&lt;/font&gt;" style="edgeLabel;html=1;align=center;verticalAlign=middle;resizable=0;points=[];" vertex="1" connectable="0" parent="lgPk3I0XaDIh1GQII4zT-132">
          <mxGeometry x="0.0757" y="1" relative="1" as="geometry">
            <mxPoint x="-6" y="-9" as="offset" />
          </mxGeometry>
        </mxCell>
        <mxCell id="lgPk3I0XaDIh1GQII4zT-136" value="" style="endArrow=block;html=1;rounded=0;edgeStyle=orthogonalEdgeStyle;endFill=1;startArrow=block;startFill=1;exitX=0.561;exitY=0;exitDx=0;exitDy=0;exitPerimeter=0;entryX=0.56;entryY=1.002;entryDx=0;entryDy=0;entryPerimeter=0;" edge="1" parent="1" source="lgPk3I0XaDIh1GQII4zT-107" target="lgPk3I0XaDIh1GQII4zT-105">
          <mxGeometry width="50" height="50" relative="1" as="geometry">
            <mxPoint x="621" y="648.02" as="sourcePoint" />
            <mxPoint x="726" y="648.02" as="targetPoint" />
            <Array as="points" />
          </mxGeometry>
        </mxCell>
        <mxCell id="lgPk3I0XaDIh1GQII4zT-137" value="&lt;font style=&quot;font-size: 14px;&quot; face=&quot;Times New Roman&quot;&gt;HTTP 1.1&lt;/font&gt;" style="edgeLabel;html=1;align=center;verticalAlign=middle;resizable=0;points=[];" vertex="1" connectable="0" parent="lgPk3I0XaDIh1GQII4zT-136">
          <mxGeometry x="0.0757" y="1" relative="1" as="geometry">
            <mxPoint x="-6" y="-9" as="offset" />
          </mxGeometry>
        </mxCell>
        <mxCell id="lgPk3I0XaDIh1GQII4zT-138" value="" style="endArrow=block;html=1;rounded=0;edgeStyle=orthogonalEdgeStyle;endFill=1;startArrow=block;startFill=1;exitX=-0.002;exitY=0.275;exitDx=0;exitDy=0;exitPerimeter=0;entryX=0;entryY=0;entryDx=155;entryDy=117.5;entryPerimeter=0;" edge="1" parent="1" source="lgPk3I0XaDIh1GQII4zT-105">
          <mxGeometry width="50" height="50" relative="1" as="geometry">
            <mxPoint x="926" y="564" as="sourcePoint" />
            <mxPoint x="1168.5" y="431.9999999999998" as="targetPoint" />
            <Array as="points">
              <mxPoint x="894" y="497" />
              <mxPoint x="1169" y="497" />
              <mxPoint x="1169" y="432" />
            </Array>
          </mxGeometry>
        </mxCell>
        <mxCell id="lgPk3I0XaDIh1GQII4zT-139" value="&lt;font style=&quot;font-size: 14px;&quot; face=&quot;Times New Roman&quot;&gt;HTTP 1.1&lt;/font&gt;" style="edgeLabel;html=1;align=center;verticalAlign=middle;resizable=0;points=[];" vertex="1" connectable="0" parent="lgPk3I0XaDIh1GQII4zT-138">
          <mxGeometry x="0.0757" y="1" relative="1" as="geometry">
            <mxPoint x="-6" y="-9" as="offset" />
          </mxGeometry>
        </mxCell>
        <mxCell id="lgPk3I0XaDIh1GQII4zT-142" value="" style="endArrow=block;html=1;rounded=0;edgeStyle=orthogonalEdgeStyle;endFill=1;startArrow=block;startFill=1;exitX=0.003;exitY=0.612;exitDx=0;exitDy=0;exitPerimeter=0;entryX=0;entryY=0;entryDx=155;entryDy=117.5;entryPerimeter=0;" edge="1" parent="1" source="lgPk3I0XaDIh1GQII4zT-105" target="lgPk3I0XaDIh1GQII4zT-113">
          <mxGeometry width="50" height="50" relative="1" as="geometry">
            <mxPoint x="683" y="554.5" as="sourcePoint" />
            <mxPoint x="661" y="431.5" as="targetPoint" />
            <Array as="points">
              <mxPoint x="818" y="457" />
              <mxPoint x="534" y="457" />
              <mxPoint x="534" y="432" />
            </Array>
          </mxGeometry>
        </mxCell>
        <mxCell id="lgPk3I0XaDIh1GQII4zT-143" value="&lt;font face=&quot;Times New Roman&quot; style=&quot;font-size: 14px;&quot;&gt;HTTP 1.1&lt;/font&gt;" style="edgeLabel;html=1;align=center;verticalAlign=middle;resizable=0;points=[];" vertex="1" connectable="0" parent="lgPk3I0XaDIh1GQII4zT-142">
          <mxGeometry x="0.0757" y="1" relative="1" as="geometry">
            <mxPoint x="-6" y="-9" as="offset" />
          </mxGeometry>
        </mxCell>
        <mxCell id="lgPk3I0XaDIh1GQII4zT-148" value="" style="shape=module;align=left;spacingLeft=20;align=center;verticalAlign=top;whiteSpace=wrap;html=1;" vertex="1" parent="1">
          <mxGeometry x="455" y="332" width="170" height="70" as="geometry" />
        </mxCell>
        <mxCell id="lgPk3I0XaDIh1GQII4zT-153" value="&lt;font style=&quot;font-size: 14px;&quot; face=&quot;Times New Roman&quot;&gt;ОС. Linux. Ubuntu 20.04 LTS&lt;/font&gt;" style="text;strokeColor=none;fillColor=none;align=left;verticalAlign=middle;spacingLeft=4;spacingRight=4;overflow=hidden;points=[[0,0.5],[1,0.5]];portConstraint=eastwest;rotatable=0;whiteSpace=wrap;html=1;" vertex="1" parent="1">
          <mxGeometry x="1072" y="405.13" width="196" height="30" as="geometry" />
        </mxCell>
        <mxCell id="lgPk3I0XaDIh1GQII4zT-154" value="" style="shape=module;align=left;spacingLeft=20;align=center;verticalAlign=top;whiteSpace=wrap;html=1;" vertex="1" parent="1">
          <mxGeometry x="1102" y="337" width="166" height="70" as="geometry" />
        </mxCell>
        <mxCell id="lgPk3I0XaDIh1GQII4zT-155" value="&lt;font style=&quot;font-size: 14px;&quot; face=&quot;Times New Roman&quot;&gt;&lt;span style=&quot;color: rgba(0, 0, 0, 0); text-wrap: nowrap;&quot;&gt;%3CmxGraphModel%3E%3Croot%3E%3CmxCell%20id%3D%220%22%2F%3E%3CmxCell%20id%3D%221%22%20parent%3D%220%22%2F%3E%3CmxCell%20id%3D%222%22%20value%3D%22%26lt%3Bfont%20style%3D%26quot%3Bfont-size%3A%2014px%3B%26quot%3B%20face%3D%26quot%3BTimes%20New%20Roman%26quot%3B%26gt%3BASP.NET%20Core%26lt%3B%2Ffont%26gt%3B%26lt%3Bdiv%20style%3D%26quot%3Bfont-size%3A%2014px%3B%26quot%3B%26gt%3B%26lt%3Bfont%20style%3D%26quot%3Bfont-size%3A%2014px%3B%26quot%3B%20face%3D%26quot%3BYPHj9YO0gPvdcaUJP9ei%26quot%3B%26gt%3B.NET%208%26lt%3B%2Ffont%26gt%3B%26lt%3B%2Fdiv%26gt%3B%26lt%3Bdiv%20style%3D%26quot%3Bfont-size%3A%2014px%3B%26quot%3B%26gt%3B%26lt%3Bfont%20style%3D%26quot%3Bfont-size%3A%2014px%3B%26quot%3B%20face%3D%26quot%3BYPHj9YO0gPvdcaUJP9ei%26quot%3B%26gt%3BEntityFramework%20Core%208%26lt%3B%2Ffont%26gt%3B%26lt%3B%2Fdiv%26gt%3B%22%20style%3D%22text%3Bhtml%3D1%3Balign%3Dleft%3BverticalAlign%3Dmiddle%3BwhiteSpace%3Dwrap%3Brounded%3D0%3B%22%20vertex%3D%221%22%20parent%3D%221%22%3E%3CmxGeometry%20x%3D%22805%22%20y%3D%22623.25%22%20width%3D%22140%22%20height%3D%2257.5%22%20as%3D%22geometry%22%2F%3E%3C%2FmxCell%3E%3C%2Froot%3E%3C%2FmxGraphModel%3E&lt;/span&gt;ASP.NET ASP.NET Core&lt;/font&gt;&lt;div style=&quot;font-size: 14px;&quot;&gt;&lt;font style=&quot;font-size: 14px;&quot; face=&quot;oEKUUC97mD8u1FqZIiND&quot;&gt;.NET 8&lt;/font&gt;&lt;/div&gt;&lt;div style=&quot;font-size: 14px;&quot;&gt;&lt;font style=&quot;font-size: 14px;&quot; face=&quot;oEKUUC97mD8u1FqZIiND&quot;&gt;EntityFramework Core 8&lt;/font&gt;&lt;/div&gt;" style="text;html=1;align=left;verticalAlign=middle;whiteSpace=wrap;rounded=0;" vertex="1" parent="1">
          <mxGeometry x="1124" y="331.76" width="159" height="60.87" as="geometry" />
        </mxCell>
        <mxCell id="lgPk3I0XaDIh1GQII4zT-156" value="" style="shape=module;align=left;spacingLeft=20;align=center;verticalAlign=top;whiteSpace=wrap;html=1;" vertex="1" parent="1">
          <mxGeometry x="765.5" y="609.5" width="160" height="70" as="geometry" />
        </mxCell>
        <mxCell id="lgPk3I0XaDIh1GQII4zT-157" value="&lt;font style=&quot;font-size: 14px;&quot; face=&quot;Times New Roman&quot;&gt;ASP.NET Core&lt;/font&gt;&lt;div style=&quot;font-size: 14px;&quot;&gt;&lt;font style=&quot;font-size: 14px;&quot; face=&quot;YPHj9YO0gPvdcaUJP9ei&quot;&gt;.NET 8&lt;/font&gt;&lt;/div&gt;&lt;div style=&quot;font-size: 14px;&quot;&gt;&lt;font style=&quot;font-size: 14px;&quot; face=&quot;YPHj9YO0gPvdcaUJP9ei&quot;&gt;EntityFramework Core 8&lt;/font&gt;&lt;/div&gt;" style="text;html=1;align=left;verticalAlign=middle;whiteSpace=wrap;rounded=0;" vertex="1" parent="1">
          <mxGeometry x="788.25" y="615.75" width="140" height="57.5" as="geometry" />
        </mxCell>
        <mxCell id="lgPk3I0XaDIh1GQII4zT-162" value="&lt;font face=&quot;Times New Roman&quot; style=&quot;font-size: 14px;&quot;&gt;Docker 25.0.2&lt;/font&gt;" style="text;html=1;align=center;verticalAlign=middle;whiteSpace=wrap;rounded=0;" vertex="1" parent="1">
          <mxGeometry x="1251" y="724.5" width="150" height="30" as="geometry" />
        </mxCell>
        <mxCell id="lgPk3I0XaDIh1GQII4zT-163" value="&lt;font style=&quot;font-size: 14px;&quot; face=&quot;Times New Roman&quot;&gt;ОС. Windows 11&lt;/font&gt;" style="text;strokeColor=none;fillColor=none;align=left;verticalAlign=middle;spacingLeft=4;spacingRight=4;overflow=hidden;points=[[0,0.5],[1,0.5]];portConstraint=eastwest;rotatable=0;whiteSpace=wrap;html=1;" vertex="1" parent="1">
          <mxGeometry x="868.62" y="1113.5" width="114" height="30" as="geometry" />
        </mxCell>
        <mxCell id="lgPk3I0XaDIh1GQII4zT-164" value="&lt;font face=&quot;Times New Roman&quot; style=&quot;font-size: 14px;&quot;&gt;ReactJS 18.0.2&lt;/font&gt;&lt;div style=&quot;font-size: 14px;&quot;&gt;&lt;font face=&quot;PvMJpOz3pLV8ocHbTbVb&quot; style=&quot;font-size: 14px;&quot;&gt;Bootstrap 5.3.0&lt;/font&gt;&lt;/div&gt;" style="text;html=1;align=left;verticalAlign=middle;whiteSpace=wrap;rounded=0;" vertex="1" parent="1">
          <mxGeometry x="808.62" y="1031.5" width="150" height="75" as="geometry" />
        </mxCell>
        <mxCell id="lgPk3I0XaDIh1GQII4zT-167" value="&lt;font style=&quot;font-size: 14px;&quot; face=&quot;Times New Roman&quot;&gt;&lt;span style=&quot;color: rgba(0, 0, 0, 0); text-wrap: nowrap;&quot;&gt;%3CmxGraphModel%3E%3Croot%3E%3CmxCell%20id%3D%220%22%2F%3E%3CmxCell%20id%3D%221%22%20parent%3D%220%22%2F%3E%3CmxCell%20id%3D%222%22%20value%3D%22%26lt%3Bfont%20style%3D%26quot%3Bfont-size%3A%2014px%3B%26quot%3B%20face%3D%26quot%3BTimes%20New%20Roman%26quot%3B%26gt%3BASP.NET%20Core%26lt%3B%2Ffont%26gt%3B%26lt%3Bdiv%20style%3D%26quot%3Bfont-size%3A%2014px%3B%26quot%3B%26gt%3B%26lt%3Bfont%20style%3D%26quot%3Bfont-size%3A%2014px%3B%26quot%3B%20face%3D%26quot%3BYPHj9YO0gPvdcaUJP9ei%26quot%3B%26gt%3B.NET%208%26lt%3B%2Ffont%26gt%3B%26lt%3B%2Fdiv%26gt%3B%26lt%3Bdiv%20style%3D%26quot%3Bfont-size%3A%2014px%3B%26quot%3B%26gt%3B%26lt%3Bfont%20style%3D%26quot%3Bfont-size%3A%2014px%3B%26quot%3B%20face%3D%26quot%3BYPHj9YO0gPvdcaUJP9ei%26quot%3B%26gt%3BEntityFramework%20Core%208%26lt%3B%2Ffont%26gt%3B%26lt%3B%2Fdiv%26gt%3B%22%20style%3D%22text%3Bhtml%3D1%3Balign%3Dleft%3BverticalAlign%3Dmiddle%3BwhiteSpace%3Dwrap%3Brounded%3D0%3B%22%20vertex%3D%221%22%20parent%3D%221%22%3E%3CmxGeometry%20x%3D%22805%22%20y%3D%22623.25%22%20width%3D%22140%22%20height%3D%2257.5%22%20as%3D%22geometry%22%2F%3E%3C%2FmxCell%3E%3C%2Froot%3E%3C%2FmxGraphModel%3E&lt;/span&gt;ASP.NET ASP.NET Core&lt;/font&gt;&lt;div style=&quot;font-size: 14px;&quot;&gt;&lt;font style=&quot;font-size: 14px;&quot; face=&quot;oEKUUC97mD8u1FqZIiND&quot;&gt;.NET 8&lt;/font&gt;&lt;/div&gt;&lt;div style=&quot;font-size: 14px;&quot;&gt;&lt;font style=&quot;font-size: 14px;&quot; face=&quot;oEKUUC97mD8u1FqZIiND&quot;&gt;EntityFramework Core 8&lt;/font&gt;&lt;/div&gt;" style="text;html=1;align=left;verticalAlign=middle;whiteSpace=wrap;rounded=0;" vertex="1" parent="1">
          <mxGeometry x="476" y="330.5" width="159" height="60.87" as="geometry" />
        </mxCell>
        <mxCell id="lgPk3I0XaDIh1GQII4zT-168" value="&lt;font style=&quot;font-size: 14px;&quot; face=&quot;Times New Roman&quot;&gt;ОС. Linux. Ubuntu 20.04 LTS&lt;/font&gt;" style="text;strokeColor=none;fillColor=none;align=left;verticalAlign=middle;spacingLeft=4;spacingRight=4;overflow=hidden;points=[[0,0.5],[1,0.5]];portConstraint=eastwest;rotatable=0;whiteSpace=wrap;html=1;" vertex="1" parent="1">
          <mxGeometry x="450" y="405.13" width="196" height="30" as="geometry" />
        </mxCell>
        <mxCell id="lgPk3I0XaDIh1GQII4zT-169" value="" style="shape=module;align=left;spacingLeft=20;align=center;verticalAlign=top;whiteSpace=wrap;html=1;" vertex="1" parent="1">
          <mxGeometry x="771.12" y="324.87" width="170" height="70" as="geometry" />
        </mxCell>
        <mxCell id="lgPk3I0XaDIh1GQII4zT-170" value="&lt;font style=&quot;font-size: 14px;&quot; face=&quot;Times New Roman&quot;&gt;&lt;span style=&quot;color: rgba(0, 0, 0, 0); text-wrap: nowrap;&quot;&gt;%3CmxGraphModel%3E%3Croot%3E%3CmxCell%20id%3D%220%22%2F%3E%3CmxCell%20id%3D%221%22%20parent%3D%220%22%2F%3E%3CmxCell%20id%3D%222%22%20value%3D%22%26lt%3Bfont%20style%3D%26quot%3Bfont-size%3A%2014px%3B%26quot%3B%20face%3D%26quot%3BTimes%20New%20Roman%26quot%3B%26gt%3BASP.NET%20Core%26lt%3B%2Ffont%26gt%3B%26lt%3Bdiv%20style%3D%26quot%3Bfont-size%3A%2014px%3B%26quot%3B%26gt%3B%26lt%3Bfont%20style%3D%26quot%3Bfont-size%3A%2014px%3B%26quot%3B%20face%3D%26quot%3BYPHj9YO0gPvdcaUJP9ei%26quot%3B%26gt%3B.NET%208%26lt%3B%2Ffont%26gt%3B%26lt%3B%2Fdiv%26gt%3B%26lt%3Bdiv%20style%3D%26quot%3Bfont-size%3A%2014px%3B%26quot%3B%26gt%3B%26lt%3Bfont%20style%3D%26quot%3Bfont-size%3A%2014px%3B%26quot%3B%20face%3D%26quot%3BYPHj9YO0gPvdcaUJP9ei%26quot%3B%26gt%3BEntityFramework%20Core%208%26lt%3B%2Ffont%26gt%3B%26lt%3B%2Fdiv%26gt%3B%22%20style%3D%22text%3Bhtml%3D1%3Balign%3Dleft%3BverticalAlign%3Dmiddle%3BwhiteSpace%3Dwrap%3Brounded%3D0%3B%22%20vertex%3D%221%22%20parent%3D%221%22%3E%3CmxGeometry%20x%3D%22805%22%20y%3D%22623.25%22%20width%3D%22140%22%20height%3D%2257.5%22%20as%3D%22geometry%22%2F%3E%3C%2FmxCell%3E%3C%2Froot%3E%3C%2FmxGraphModel%3E&lt;/span&gt;ASP.NET ASP.NET Core&lt;/font&gt;&lt;div style=&quot;font-size: 14px;&quot;&gt;&lt;font style=&quot;font-size: 14px;&quot; face=&quot;oEKUUC97mD8u1FqZIiND&quot;&gt;.NET 8&lt;/font&gt;&lt;/div&gt;&lt;div style=&quot;font-size: 14px;&quot;&gt;&lt;font style=&quot;font-size: 14px;&quot; face=&quot;oEKUUC97mD8u1FqZIiND&quot;&gt;EntityFramework Core 8&lt;/font&gt;&lt;/div&gt;" style="text;html=1;align=left;verticalAlign=middle;whiteSpace=wrap;rounded=0;" vertex="1" parent="1">
          <mxGeometry x="795.12" y="324.87" width="159" height="60.87" as="geometry" />
        </mxCell>
        <mxCell id="lgPk3I0XaDIh1GQII4zT-171" value="&lt;font style=&quot;font-size: 14px;&quot; face=&quot;Times New Roman&quot;&gt;ОС. Linux. Ubuntu 20.04 LTS&lt;/font&gt;" style="text;strokeColor=none;fillColor=none;align=left;verticalAlign=middle;spacingLeft=4;spacingRight=4;overflow=hidden;points=[[0,0.5],[1,0.5]];portConstraint=eastwest;rotatable=0;whiteSpace=wrap;html=1;" vertex="1" parent="1">
          <mxGeometry x="766.12" y="398" width="196" height="30" as="geometry" />
        </mxCell>
        <mxCell id="lgPk3I0XaDIh1GQII4zT-172" value="&lt;span style=&quot;font-family: &amp;quot;Times New Roman&amp;quot;; font-size: 14px;&quot;&gt;MSSQL&amp;nbsp;&lt;/span&gt;&lt;font face=&quot;Times New Roman&quot;&gt;&lt;span style=&quot;font-size: 14px;&quot;&gt;16.0.1000.6&lt;/span&gt;&lt;/font&gt;" style="text;html=1;align=center;verticalAlign=middle;whiteSpace=wrap;rounded=0;" vertex="1" parent="1">
          <mxGeometry x="972.63" y="104.75" width="84" height="30" as="geometry" />
        </mxCell>
        <mxCell id="lgPk3I0XaDIh1GQII4zT-175" value="" style="endArrow=classic;startArrow=classic;html=1;rounded=0;entryX=0.346;entryY=0.942;entryDx=0;entryDy=0;entryPerimeter=0;exitX=-0.007;exitY=0.591;exitDx=0;exitDy=0;exitPerimeter=0;" edge="1" parent="1" source="lgPk3I0XaDIh1GQII4zT-119">
          <mxGeometry width="50" height="50" relative="1" as="geometry">
            <mxPoint x="792" y="919" as="sourcePoint" />
            <mxPoint x="841.0699999999999" y="712.7599999999998" as="targetPoint" />
          </mxGeometry>
        </mxCell>
        <mxCell id="lgPk3I0XaDIh1GQII4zT-176" value="&lt;font style=&quot;font-size: 14px;&quot; face=&quot;Times New Roman&quot;&gt;HTTP 1.1&lt;/font&gt;" style="text;html=1;align=center;verticalAlign=middle;whiteSpace=wrap;rounded=0;rotation=-90;" vertex="1" parent="1">
          <mxGeometry x="799" y="806" width="60" height="30" as="geometry" />
        </mxCell>
        <mxCell id="lgPk3I0XaDIh1GQII4zT-177" value="&lt;font style=&quot;font-size: 14px;&quot; face=&quot;Times New Roman&quot;&gt;ОС. Linux. Ubuntu 20.04 LTS&lt;/font&gt;" style="text;strokeColor=none;fillColor=none;align=left;verticalAlign=middle;spacingLeft=4;spacingRight=4;overflow=hidden;points=[[0,0.5],[1,0.5]];portConstraint=eastwest;rotatable=0;whiteSpace=wrap;html=1;" vertex="1" parent="1">
          <mxGeometry x="745.5" y="680.75" width="196" height="30" as="geometry" />
        </mxCell>
        <mxCell id="lgPk3I0XaDIh1GQII4zT-178" value="" style="shape=module;align=left;spacingLeft=20;align=center;verticalAlign=top;whiteSpace=wrap;html=1;" vertex="1" parent="1">
          <mxGeometry x="435" y="607" width="160" height="70" as="geometry" />
        </mxCell>
        <mxCell id="lgPk3I0XaDIh1GQII4zT-179" value="&lt;font style=&quot;font-size: 14px;&quot; face=&quot;Times New Roman&quot;&gt;ASP.NET Core&lt;/font&gt;&lt;div style=&quot;font-size: 14px;&quot;&gt;&lt;font style=&quot;font-size: 14px;&quot; face=&quot;YPHj9YO0gPvdcaUJP9ei&quot;&gt;.NET 8&lt;/font&gt;&lt;/div&gt;&lt;div style=&quot;font-size: 14px;&quot;&gt;&lt;font style=&quot;font-size: 14px;&quot; face=&quot;YPHj9YO0gPvdcaUJP9ei&quot;&gt;EntityFramework Core 8&lt;/font&gt;&lt;/div&gt;" style="text;html=1;align=left;verticalAlign=middle;whiteSpace=wrap;rounded=0;" vertex="1" parent="1">
          <mxGeometry x="457.75" y="613.25" width="140" height="57.5" as="geometry" />
        </mxCell>
        <mxCell id="lgPk3I0XaDIh1GQII4zT-180" value="&lt;font style=&quot;font-size: 14px;&quot; face=&quot;Times New Roman&quot;&gt;ОС. Linux. Ubuntu 20.04 LTS&lt;/font&gt;" style="text;strokeColor=none;fillColor=none;align=left;verticalAlign=middle;spacingLeft=4;spacingRight=4;overflow=hidden;points=[[0,0.5],[1,0.5]];portConstraint=eastwest;rotatable=0;whiteSpace=wrap;html=1;" vertex="1" parent="1">
          <mxGeometry x="426" y="679.5" width="196" height="30" as="geometry" />
        </mxCell>
        <mxCell id="lgPk3I0XaDIh1GQII4zT-181" value="" style="endArrow=classic;startArrow=classic;html=1;rounded=0;entryX=0.428;entryY=1.019;entryDx=0;entryDy=0;entryPerimeter=0;" edge="1" parent="1" target="lgPk3I0XaDIh1GQII4zT-171">
          <mxGeometry width="50" height="50" relative="1" as="geometry">
            <mxPoint x="851" y="553" as="sourcePoint" />
            <mxPoint x="870" y="429" as="targetPoint" />
          </mxGeometry>
        </mxCell>
        <mxCell id="lgPk3I0XaDIh1GQII4zT-182" value="&lt;font style=&quot;font-size: 14px;&quot; face=&quot;Times New Roman&quot;&gt;HTTP 1.1&lt;/font&gt;" style="text;html=1;align=center;verticalAlign=middle;whiteSpace=wrap;rounded=0;rotation=90;" vertex="1" parent="1">
          <mxGeometry x="830.87" y="475" width="60" height="30" as="geometry" />
        </mxCell>
      </root>
    </mxGraphModel>
  </diagram>
</mxfile>
